<svg width="24" height="24" viewBox="0 0 24 24" fill="none" xmlns="http://www.w3.org/2000/svg">
<path d="M9.25 7.5H18.75C21.5114 7.5 23.75 9.7386 23.75 12.5C23.75 15.2614 21.5114 17.5 18.75 17.5H9.25V7.5Z" fill="url(#paint0_linear_3_71)"/>
<path d="M9.25 17.5C13.2541 17.5 16.5 14.2541 16.5 10.25C16.5 6.24594 13.2541 3 9.25 3C5.24594 3 2 6.24594 2 10.25C2 14.2541 5.24594 17.5 9.25 17.5Z" fill="url(#paint1_linear_3_71)"/>
<path d="M8.25 9.5H17.75C20.5114 9.5 22.75 11.7386 22.75 14.5C22.75 17.2614 20.5114 19.5 17.75 19.5H8.25V9.5Z" fill="url(#paint2_linear_3_71)"/>
<path d="M8.25 19.5C12.2541 19.5 15.5 16.2541 15.5 12.25C15.5 8.24594 12.2541 5 8.25 5C4.24594 5 1 8.24594 1 12.25C1 16.2541 4.24594 19.5 8.25 19.5Z" fill="url(#paint3_linear_3_71)"/>
<mask id="mask0_3_71" style="mask-type:alpha" maskUnits="userSpaceOnUse" x="1" y="5" width="22" height="15">
<path fill-rule="evenodd" clip-rule="evenodd" d="M14.9603 9.5C13.877 6.85959 11.2807 5 8.25 5C4.24594 5 1 8.24594 1 12.25C1 16.2541 4.24594 19.5 8.25 19.5H17.75C20.5114 19.5 22.75 17.2614 22.75 14.5C22.75 11.7386 20.5114 9.5 17.75 9.5H14.9603Z" fill="white"/>
<path fill-rule="evenodd" clip-rule="evenodd" d="M14.9603 9.5C13.877 6.85959 11.2807 5 8.25 5C4.24594 5 1 8.24594 1 12.25C1 16.2541 4.24594 19.5 8.25 19.5H17.75C20.5114 19.5 22.75 17.2614 22.75 14.5C22.75 11.7386 20.5114 9.5 17.75 9.5H14.9603Z" fill="url(#paint4_linear_3_71)"/>
</mask>
<g mask="url(#mask0_3_71)">
<g filter="url(#filter0_d_3_71)">
<path d="M8.25 19.5C12.2541 19.5 15.5 16.2541 15.5 12.25C15.5 8.24594 12.2541 5 8.25 5C4.24594 5 1 8.24594 1 12.25C1 16.2541 4.24594 19.5 8.25 19.5Z" fill="url(#paint5_linear_3_71)"/>
</g>
</g>
<defs>
<filter id="filter0_d_3_71" x="-2.5" y="2" width="22.5" height="22.5" filterUnits="userSpaceOnUse" color-interpolation-filters="sRGB">
<feFlood flood-opacity="0" result="BackgroundImageFix"/>
<feColorMatrix in="SourceAlpha" type="matrix" values="0 0 0 0 0 0 0 0 0 0 0 0 0 0 0 0 0 0 127 0" result="hardAlpha"/>
<feOffset dx="0.5" dy="1"/>
<feGaussianBlur stdDeviation="2"/>
<feComposite in2="hardAlpha" operator="out"/>
<feColorMatrix type="matrix" values="0 0 0 0 0 0 0 0 0 0 0 0 0 0 0 0 0 0 0.12 0"/>
<feBlend mode="normal" in2="BackgroundImageFix" result="effect1_dropShadow_3_71"/>
<feBlend mode="normal" in="SourceGraphic" in2="effect1_dropShadow_3_71" result="shape"/>
</filter>
<linearGradient id="paint0_linear_3_71" x1="16.5" y1="7.5" x2="16.5" y2="17.5" gradientUnits="userSpaceOnUse">
<stop stop-color="#7B7B7B"/>
</linearGradient>
<linearGradient id="paint1_linear_3_71" x1="9.25" y1="3" x2="9.25" y2="17.5" gradientUnits="userSpaceOnUse">
<stop stop-color="#7B7B7B"/>
</linearGradient>
<linearGradient id="paint2_linear_3_71" x1="15.5" y1="9.5" x2="15.5" y2="19.5" gradientUnits="userSpaceOnUse">
<stop stop-color="#FAFAFA"/>
<stop offset="1" stop-color="#E0E0E0"/>
</linearGradient>
<linearGradient id="paint3_linear_3_71" x1="8.25" y1="5" x2="8.25" y2="19.5" gradientUnits="userSpaceOnUse">
<stop stop-color="#FAFAFA"/>
<stop offset="1" stop-color="#E0E0E0"/>
</linearGradient>
<linearGradient id="paint4_linear_3_71" x1="12.125" y1="12.8125" x2="12.125" y2="19.5" gradientUnits="userSpaceOnUse">
<stop stop-color="white"/>
<stop offset="1" stop-color="white" stop-opacity="0"/>
</linearGradient>
<linearGradient id="paint5_linear_3_71" x1="8.25" y1="5" x2="8.25" y2="19.5" gradientUnits="userSpaceOnUse">
<stop stop-color="#FAFAFA"/>
<stop offset="1" stop-color="#E0E0E0"/>
</linearGradient>
</defs>
</svg>
