<svg width="24" height="24" viewBox="0 0 24 24" fill="none" xmlns="http://www.w3.org/2000/svg">
<g clip-path="url(#clip0_5_131)">
<path d="M8.25 4.5H17.75C20.5114 4.5 22.75 6.7386 22.75 9.5C22.75 12.2614 20.5114 14.5 17.75 14.5H8.25V4.5Z" fill="url(#paint0_linear_5_131)"/>
<path d="M8.25 14.5C12.2541 14.5 15.5 11.2541 15.5 7.25C15.5 3.24594 12.2541 0 8.25 0C4.24594 0 1 3.24594 1 7.25C1 11.2541 4.24594 14.5 8.25 14.5Z" fill="url(#paint1_linear_5_131)"/>
<path d="M7.25 6.5H16.75C19.5114 6.5 21.75 8.7386 21.75 11.5C21.75 14.2614 19.5114 16.5 16.75 16.5H7.25V6.5Z" fill="url(#paint2_linear_5_131)"/>
<path d="M7.25 16.5C11.2541 16.5 14.5 13.2541 14.5 9.25C14.5 5.24594 11.2541 2 7.25 2C3.24594 2 0 5.24594 0 9.25C0 13.2541 3.24594 16.5 7.25 16.5Z" fill="url(#paint3_linear_5_131)"/>
<mask id="mask0_5_131" style="mask-type:alpha" maskUnits="userSpaceOnUse" x="0" y="2" width="22" height="15">
<path fill-rule="evenodd" clip-rule="evenodd" d="M13.9603 6.5C12.877 3.85959 10.2807 2 7.25 2C3.24594 2 0 5.24594 0 9.25C0 13.2541 3.24594 16.5 7.25 16.5H16.75C19.5114 16.5 21.75 14.2614 21.75 11.5C21.75 8.7386 19.5114 6.5 16.75 6.5H13.9603Z" fill="white"/>
<path fill-rule="evenodd" clip-rule="evenodd" d="M13.9603 6.5C12.877 3.85959 10.2807 2 7.25 2C3.24594 2 0 5.24594 0 9.25C0 13.2541 3.24594 16.5 7.25 16.5H16.75C19.5114 16.5 21.75 14.2614 21.75 11.5C21.75 8.7386 19.5114 6.5 16.75 6.5H13.9603Z" fill="url(#paint4_linear_5_131)"/>
</mask>
<g mask="url(#mask0_5_131)">
<g filter="url(#filter0_d_5_131)">
<path d="M7.25 16.5C11.2541 16.5 14.5 13.2541 14.5 9.25C14.5 5.24594 11.2541 2 7.25 2C3.24594 2 0 5.24594 0 9.25C0 13.2541 3.24594 16.5 7.25 16.5Z" fill="url(#paint5_linear_5_131)"/>
</g>
</g>
<path d="M7 20.8665L8.8327 18H11.0883L9.9744 19.7387H12.0673L7 24.25L8.88909 20.8666L7 20.8665Z" fill="url(#paint6_linear_5_131)"/>
<path d="M13 19.8346L14.1729 18H15.6165L14.9036 19.1128H16.2431L13 22L14.209 19.8346H13Z" fill="url(#paint7_linear_5_131)"/>
</g>
<defs>
<filter id="filter0_d_5_131" x="-3.5" y="-1" width="22.5" height="22.5" filterUnits="userSpaceOnUse" color-interpolation-filters="sRGB">
<feFlood flood-opacity="0" result="BackgroundImageFix"/>
<feColorMatrix in="SourceAlpha" type="matrix" values="0 0 0 0 0 0 0 0 0 0 0 0 0 0 0 0 0 0 127 0" result="hardAlpha"/>
<feOffset dx="0.5" dy="1"/>
<feGaussianBlur stdDeviation="2"/>
<feComposite in2="hardAlpha" operator="out"/>
<feColorMatrix type="matrix" values="0 0 0 0 0 0 0 0 0 0 0 0 0 0 0 0 0 0 0.12 0"/>
<feBlend mode="normal" in2="BackgroundImageFix" result="effect1_dropShadow_5_131"/>
<feBlend mode="normal" in="SourceGraphic" in2="effect1_dropShadow_5_131" result="shape"/>
</filter>
<linearGradient id="paint0_linear_5_131" x1="15.5" y1="4.5" x2="15.5" y2="14.5" gradientUnits="userSpaceOnUse">
<stop stop-color="#7B7B7B"/>
</linearGradient>
<linearGradient id="paint1_linear_5_131" x1="8.25" y1="0" x2="8.25" y2="14.5" gradientUnits="userSpaceOnUse">
<stop stop-color="#7B7B7B"/>
</linearGradient>
<linearGradient id="paint2_linear_5_131" x1="14.5" y1="6.5" x2="14.5" y2="16.5" gradientUnits="userSpaceOnUse">
<stop stop-color="#FAFAFA"/>
<stop offset="1" stop-color="#E0E0E0"/>
</linearGradient>
<linearGradient id="paint3_linear_5_131" x1="7.25" y1="2" x2="7.25" y2="16.5" gradientUnits="userSpaceOnUse">
<stop stop-color="#FAFAFA"/>
<stop offset="1" stop-color="#E0E0E0"/>
</linearGradient>
<linearGradient id="paint4_linear_5_131" x1="11.125" y1="9.8125" x2="11.125" y2="16.5" gradientUnits="userSpaceOnUse">
<stop stop-color="white"/>
<stop offset="1" stop-color="white" stop-opacity="0"/>
</linearGradient>
<linearGradient id="paint5_linear_5_131" x1="7.25" y1="2" x2="7.25" y2="16.5" gradientUnits="userSpaceOnUse">
<stop stop-color="#FAFAFA"/>
<stop offset="1" stop-color="#E0E0E0"/>
</linearGradient>
<linearGradient id="paint6_linear_5_131" x1="9.53365" y1="18" x2="9.53365" y2="24.25" gradientUnits="userSpaceOnUse">
<stop stop-color="#FDC33B"/>
<stop offset="1" stop-color="#FCB13A"/>
</linearGradient>
<linearGradient id="paint7_linear_5_131" x1="14.6215" y1="18" x2="14.6215" y2="22" gradientUnits="userSpaceOnUse">
<stop stop-color="#FDC33B"/>
<stop offset="1" stop-color="#FCB13A"/>
</linearGradient>
<clipPath id="clip0_5_131">
<rect width="24" height="24" fill="white"/>
</clipPath>
</defs>
</svg>
