<svg width="24" height="24" viewBox="0 0 24 24" fill="none" xmlns="http://www.w3.org/2000/svg">
<g clip-path="url(#clip0_6_173)">
<path fill-rule="evenodd" clip-rule="evenodd" d="M12 2C13.3812 2 14.5012 3.1195 14.5012 4.5V7.67L17.2475 6.085C18.4441 5.3945 19.9739 5.8045 20.6647 7C21.355 8.1955 20.9453 9.7245 19.7488 10.415L17.0024 12L19.7488 13.585C20.9453 14.2755 21.355 15.8045 20.6647 17C19.9739 18.1955 18.4441 18.6055 17.2475 17.915L14.5012 16.33V19.5C14.5012 20.8805 13.3812 22 12 22C10.6188 22 9.49879 20.8805 9.49879 19.5V16.33L6.75246 17.915C5.55588 18.6055 4.02614 18.1955 3.33531 17C2.64497 15.8045 3.05467 14.2755 4.25125 13.585L6.99758 12L4.25125 10.415C3.05467 9.7245 2.64497 8.1955 3.33531 7C4.02614 5.8045 5.55588 5.3945 6.75246 6.085L9.49879 7.67V4.5C9.49879 3.1195 10.6188 2 12 2Z" fill="url(#paint0_linear_6_173)"/>
</g>
<defs>
<linearGradient id="paint0_linear_6_173" x1="12" y1="2" x2="12" y2="22" gradientUnits="userSpaceOnUse">
<stop stop-color="#FAFAFA"/>
<stop offset="1" stop-color="#E0E0E0"/>
</linearGradient>
<clipPath id="clip0_6_173">
<rect width="24" height="24" fill="white"/>
</clipPath>
</defs>
</svg>
